PathFileType	4	(X/Y/Z)	C:/Users/opensim2020/Desktop/walking_exp_matlab/subject01_walking10_straight_01.trc	
DataRate	CameraRate	NumFrames	NumMarkers	Units	OrigDataRate	OrigDataStartFrame	OrigNumFrames	
100.00	100.00	5	43	mm	100.00	1183	349	
Frame#	Time	LFHD			RFHD			LBHD			RBHD			C7			T10			CLAV			STRN			RBAK			LSHO			LUPA			LELB			LFRM			LWRA			LWRB			LFIN			RSHO			RUPA			RELB			RFRM			RWRA			RWRB			RFIN			LASI			RASI			LPSI			RPSI			LTHI			LKNE			LTIB			LANK			LHEE			LTOE			RTHI			RKNE			RTIB			RANK			RHEE			RTOE			*39			*40			*41			*42			
		X1	Y1	Z1	X2	Y2	Z2	X3	Y3	Z3	X4	Y4	Z4	X5	Y5	Z5	X6	Y6	Z6	X7	Y7	Z7	X8	Y8	Z8	X9	Y9	Z9	X10	Y10	Z10	X11	Y11	Z11	X12	Y12	Z12	X13	Y13	Z13	X14	Y14	Z14	X15	Y15	Z15	X16	Y16	Z16	X17	Y17	Z17	X18	Y18	Z18	X19	Y19	Z19	X20	Y20	Z20	X21	Y21	Z21	X22	Y22	Z22	X23	Y23	Z23	X24	Y24	Z24	X25	Y25	Z25	X26	Y26	Z26	X27	Y27	Z27	X28	Y28	Z28	X29	Y29	Z29	X30	Y30	Z30	X31	Y31	Z31	X32	Y32	Z32	X33	Y33	Z33	X34	Y34	Z34	X35	Y35	Z35	X36	Y36	Z36	X37	Y37	Z37	X38	Y38	Z38	X39	Y39	Z39	X40	Y40	Z40	X41	Y41	Z41	X42	Y42	Z42	X43	Y43	Z43	

262	2.610	1406.59497	491.14169	1678.47803	1513.52600	527.02393	1689.67285	1439.96899	390.22192	1612.32446	1553.81653	426.02109	1622.68909	1465.06860	382.13940	1436.46057	1467.17749	343.46823	1144.19348	1465.10828	524.97864	1367.27747	1458.68677	566.24658	1210.52856	1539.23254	326.25110	1242.18445	1305.08777	469.01730	1399.77100	1220.55823	450.12796	1215.13647	1222.34607	446.11536	1062.49121	1202.69946	498.30734	959.50458	1227.89282	590.70374	856.86914	1202.97864	537.91125	843.79669	1196.37085	595.32361	781.27972	1616.75305	463.43228	1393.98608	1716.32446	407.25513	1192.78662	1717.49658	409.33185	1067.52026	1744.89575	442.72128	950.90906	1721.26196	526.29443	837.43585	1762.56592	485.07803	837.15784	1759.15906	524.09094	760.63470	1360.30725	514.57361	931.07751	1577.64063	515.33752	937.25354	1410.75269	328.63953	946.71497	1556.21167	329.13098	952.60565	1291.48755	525.59717	604.63397	1300.88416	526.18085	470.99857	1305.75342	381.14975	356.31143	1365.97681	227.39348	207.73822	1427.80579	184.36063	211.43188	1342.17419	294.93515	78.34890	1622.26807	481.33099	604.01355	1590.54529	504.21664	447.96060	1589.47900	459.37540	276.42963	1529.62012	444.94669	74.54630	1478.27734	396.67609	38.22060	1531.14246	586.07855	37.22430	1495.09094	504.14255	1719.94434	-3102.17480	1972.91272	1024.06421	-3140.74585	2012.49036	1021.93445			 
263	2.620	1407.56128	497.78577	1678.72705	1514.51904	534.00464	1689.80969	1441.13586	396.78406	1612.81555	1554.94824	432.82150	1623.06458	1466.25000	388.21030	1436.83813	1468.19006	349.57001	1144.39172	1465.95630	530.92834	1367.45496	1459.52490	572.04938	1210.66272	1540.43201	332.23938	1242.51514	1306.06653	474.86728	1400.07434	1221.58533	454.95828	1215.41211	1223.52173	450.05621	1062.97375	1203.50488	501.01773	959.37415	1228.19751	592.45416	855.77612	1203.18347	539.03717	843.44635	1196.84851	596.10828	780.18616	1617.68799	469.63242	1394.19543	1717.41724	413.87668	1192.93799	1718.90649	416.80005	1067.62524	1746.53699	451.22278	951.33069	1723.01855	535.76984	838.56329	1764.29309	494.57254	837.99854	1761.02356	534.14825	761.78900	1361.40295	520.31409	931.78802	1578.66284	520.97986	937.32361	1411.57153	334.37698	947.05481	1557.10767	334.74805	952.83722	1292.43005	535.28131	606.18762	1301.70190	537.75684	472.69626	1306.37207	394.31549	356.43542	1366.49585	242.30515	205.45383	1428.06653	198.40353	208.17972	1342.42224	313.97806	78.45034	1622.70154	485.19775	603.82471	1590.91370	507.05438	447.54285	1589.64514	461.17136	276.29282	1529.70947	445.23450	74.75969	1478.32495	396.78403	38.54908	1531.22363	586.22449	37.21066	1496.04382	511.12750	1720.10291	-3101.99927	1973.02893	1023.83417	-3140.66528	2012.45618	1021.94684			 
264	2.630	1408.43909	504.40524	1678.89233	1515.33569	540.86377	1689.80493	1442.27649	403.30298	1613.36719	1555.93958	439.59653	1623.42041	1467.26294	394.34140	1437.02393	1469.29480	355.27335	1144.71863	1466.83130	536.90814	1367.64490	1460.35059	577.91138	1210.86084	1541.56421	338.21191	1242.93762	1306.98193	480.67896	1400.35071	1222.49731	459.83121	1215.75342	1224.58801	454.02054	1063.45117	1204.27820	503.83032	959.47491	1228.56042	594.15271	854.71808	1203.66663	540.56970	842.90704	1197.20276	596.81531	779.01477	1618.60327	475.77075	1394.41821	1718.42444	420.42490	1193.03674	1720.35181	424.28134	1067.79480	1748.11658	459.63892	951.76508	1724.63440	545.17950	839.68762	1766.00146	504.02090	838.88037	1762.70789	544.18610	762.87775	1362.37219	525.94330	932.47083	1579.62646	526.58728	937.35071	1412.35791	340.08435	947.39954	1557.79541	340.31537	952.97424	1293.40686	544.70966	607.74432	1302.74768	549.19470	474.57050	1306.90747	407.40475	356.10922	1366.84412	258.00198	202.87914	1428.15271	213.25591	204.01395	1343.10962	334.92603	78.64877	1623.25183	489.22879	603.79840	1591.41028	509.92426	447.33411	1589.94653	462.94876	276.30643	1529.64514	445.38129	74.76355	1478.22644	397.02530	38.78471	1531.24353	586.32947	37.12689	1497.01160	518.09674	1720.22864	-3101.96338	1973.01953	1023.75336	-3140.74048	2012.50879	1021.96991			 
265	2.640	1409.38367	511.07742	1679.08948	1516.20093	547.79156	1689.91956	1443.23792	409.40063	1614.00830	1556.90430	446.27042	1623.76953	1468.21021	400.20767	1437.41357	1470.43457	361.05325	1145.09827	1467.55872	542.84625	1367.83044	1461.06482	583.67249	1211.00732	1542.72803	344.20236	1243.24548	1307.81958	486.35416	1400.65735	1223.39075	464.67783	1216.06091	1225.55200	457.79120	1063.85364	1205.06458	506.58902	959.47772	1228.96887	595.70673	853.56750	1204.24683	542.09808	842.46759	1197.52393	597.43622	777.86981	1619.29504	481.83044	1394.55652	1719.40796	426.91013	1193.17786	1721.68225	431.59781	1067.91492	1749.56897	467.99481	952.19122	1726.19348	554.62366	840.91211	1767.54907	513.41302	839.78265	1764.31348	554.32092	764.16235	1363.24683	531.41254	933.08282	1580.54309	532.31018	937.41278	1413.17957	345.69275	947.78192	1558.66052	345.91324	953.28387	1294.27832	553.86633	609.28149	1303.87341	560.21643	476.24323	1307.49426	420.64838	355.48291	1366.60632	274.19574	198.81456	1427.85815	228.75197	198.84375	1343.15588	354.76318	77.46918	1623.82239	493.06866	603.70544	1591.76147	512.68982	447.10986	1590.18323	464.69312	276.32806	1529.78223	445.78336	74.92483	1478.07312	397.13330	39.12576	1531.25842	586.42096	37.02158	1497.88000	525.04602	1720.38379	-3101.96973	1973.12903	1023.43671	-3140.66699	2012.53894	1022.04871			 
266	2.650	1410.17078	517.70203	1679.30371	1516.94971	554.60718	1689.97852	1444.21631	416.12494	1614.40869	1557.80200	452.92828	1624.16833	1469.11499	406.19946	1437.73059	1471.59436	366.70660	1145.43665	1468.25879	548.74695	1368.02539	1461.67578	589.46136	1211.17798	1543.85120	350.09314	1243.60413	1308.57288	492.00766	1400.93274	1224.22449	469.53418	1216.44006	1226.38574	461.72061	1064.25391	1205.77039	509.28616	959.52032	1229.23230	597.38940	852.57397	1204.66956	543.62665	842.12018	1197.75244	598.01898	776.62537	1620.25110	487.96582	1394.89819	1720.30042	433.36487	1193.27710	1722.98547	438.84753	1068.04761	1750.94531	476.27747	952.58246	1727.64624	563.98096	842.16205	1769.06262	522.73572	840.70697	1765.71228	564.37482	765.38513	1364.05798	537.17950	933.83002	1581.38574	538.00323	937.42834	1413.92175	351.25400	948.18176	1559.50110	351.56659	953.58606	1295.11389	562.93744	610.79340	1305.09753	571.21643	477.99170	1308.08069	434.04523	354.35895	1366.48999	290.85226	194.45409	1427.35974	244.81100	192.75829	1342.72119	375.53458	76.35579	1624.08362	496.74820	603.46832	1592.01782	515.20917	446.79630	1590.32935	466.08923	276.29404	1529.82104	446.00531	75.09859	1478.07910	397.24371	39.51158	1531.32764	586.50000	37.02333	1498.50110	531.88171	1720.40759	-3102.02979	1972.99890	1023.75769	-3140.81201	2012.50684	1022.05847			 
